<?xml version="1.0" encoding="utf-8"?>
<!-- Generator: Adobe Illustrator 23.0.0, SVG Export Plug-In . SVG Version: 6.00 Build 0)  -->
<svg version="1.1" id="레이어_1" xmlns="http://www.w3.org/2000/svg" xmlns:xlink="http://www.w3.org/1999/xlink" x="0px"
	 y="0px" viewBox="0 0 800 256" style="enable-background:new 0 0 800 256;" xml:space="preserve">
<style type="text/css">
	.st0{fill:#FFFFFF;}
</style>
<g>
	<g>
		<path class="st0" d="M89.74,256c-15.32,0-26.87-3.05-35.32-9.32c-9.06-6.71-13.66-17.58-13.66-32.31v-25.22
			c0-14.27-3.23-26.05-9.59-35.01C25,145.5,14.51,139.5,0,136.32l0.01-15.4c14.5-3.17,24.98-9.17,31.16-17.83
			c6.36-8.94,9.58-20.71,9.58-34.98V42.89c0-14.72,4.6-25.6,13.66-32.33c8.47-6.26,20.02-9.3,35.32-9.3v15.76
			c-11.64,0-20.37,2.09-25.93,6.21c-4.9,3.64-7.29,10.07-7.29,19.66v25.23c0,17.61-4.21,32.46-12.51,44.13
			c-4.76,6.68-11.13,12.15-19.04,16.38c7.9,4.23,14.27,9.7,19.03,16.36c8.31,11.7,12.52,26.55,12.52,44.16v25.22
			c0,9.59,2.38,16.02,7.29,19.65c5.56,4.13,14.29,6.22,25.93,6.22V256z"/>
	</g>
	<g>
		<g>
			<path class="st0" d="M799.99,120.92c-14.5-3.17-24.99-9.17-31.16-17.82c-6.36-8.95-9.59-20.72-9.59-34.99V42.89
				c0-14.72-4.6-25.6-13.67-32.34c-4.44-3.28-9.75-5.66-15.98-7.19c-13.73-3.96-31.81-4.58-54.62-0.99c0,0-69.9-7.16-66.51,62.33
				c1.02,0.2,2.04,0.38,3.06,0.57c-0.2,2.13-0.31,4.3-0.31,6.54c0,19.47-6.65,25.63-11.51,30.14c-3.18,2.94-7.13,6.61-7.13,12.58
				c0,8.61,12.34,84.49,56.7,84.49c6.68,0,9.58,2.73,11.17,4.78c8.61,11.06,4.2,38.58,1.98,47.34l15.27,3.9
				c1.08-4.22,10.09-41.74-4.8-60.9c-5.53-7.12-13.7-10.89-23.63-10.89c-27.61,0-40.15-55.88-40.9-67.77
				c0.51-0.55,1.37-1.35,2.05-1.97c6.19-5.74,16.56-15.35,16.56-41.7c0-1.35,0.1-2.65,0.2-3.95c22.32,3.26,40.22,4.13,40.22,4.13
				l1.03-27.47l11.7,51.96c0,0,12.71-19.42,27.97-6.71c15.25,12.71-3.72,49.11-18.46,45.03c13.69,40.23,20.62,112.99,20.65,113.29
				v7.9c15.32,0,26.87-3.05,35.32-9.31c9.07-6.71,13.67-17.59,13.67-32.32v-25.22c0-14.27,3.23-26.05,9.58-34.99
				c6.18-8.65,16.67-14.65,31.17-17.83L799.99,120.92z"/>
		</g>
		<g>
			<path class="st0" d="M638.57,91.61c0,5.59,2.81,10.13,6.27,10.13c3.46,0,6.27-4.53,6.27-10.13c0-5.59-2.81-10.13-6.27-10.13
				C641.38,81.48,638.57,86.02,638.57,91.61z"/>
		</g>
	</g>
	<g>
		
			<rect x="1.67" y="123.23" transform="matrix(0.1592 -0.9872 0.9872 0.1592 -24.158 233.8663)" class="st0" width="247.11" height="15.76"/>
	</g>
	<g>
		<g>
			<path class="st0" d="M255.56,179.54c8.74,0,17.38-0.7,25.91-2.11c8.53-1.41,15.47-3.38,20.83-5.92v31.93
				c-5.22,2.68-12.44,4.76-21.67,6.24c-9.23,1.48-18.43,2.22-27.6,2.22h-70V43.99h105.1v32.36H219.4v103.2H255.56z M367.64,140.42
				H346.5v79.94h-35.74V39.76h35.74v65.98h21.15V140.42z"/>
		</g>
		<g>
			<path class="st0" d="M487.76,112.51c-4.79,7.19-11.52,12.76-20.19,16.71c-8.67,3.95-18.72,5.92-30.14,5.92
				c-11.42,0-21.46-1.97-30.13-5.92c-8.67-3.95-15.4-9.52-20.2-16.71c-4.79-7.19-7.19-15.51-7.19-24.95
				c0-9.44,2.39-17.76,7.19-24.95c4.79-7.19,11.53-12.76,20.2-16.71c8.67-3.95,18.72-5.92,30.13-5.92c11.42,0,21.47,1.97,30.14,5.92
				c8.67,3.95,15.4,9.52,20.19,16.71c4.79,7.19,7.19,15.51,7.19,24.95C494.95,97,492.55,105.32,487.76,112.51z M535.34,151.31
				c14.8,6.42,22.21,16.67,22.21,30.77c0,14.1-7.4,24.35-22.21,30.77c-14.8,6.41-34.54,9.62-59.21,9.62
				c-24.67,0-44.41-3.21-59.21-9.62c-14.8-6.42-22.2-16.67-22.2-30.77c0-14.1,7.4-24.35,22.2-30.77c14.8-6.41,34.54-9.62,59.21-9.62
				C500.8,141.69,520.54,144.9,535.34,151.31z M421.25,101.19c3.88,3.31,9.27,4.97,16.18,4.97c6.91,0,12.3-1.65,16.18-4.97
				c3.88-3.31,5.82-7.86,5.82-13.64c0-5.78-1.94-10.33-5.82-13.64c-3.88-3.31-9.27-4.97-16.18-4.97c-6.91,0-12.3,1.66-16.18,4.97
				c-3.88,3.31-5.82,7.86-5.82,13.64C415.43,93.34,417.37,97.88,421.25,101.19z M507.22,191.07c7.89-1.9,11.84-4.9,11.84-8.99
				c0-3.95-3.99-6.91-11.95-8.88c-7.97-1.97-18.29-2.96-30.98-2.96c-12.69,0-23.02,0.99-30.98,2.96
				c-7.97,1.98-11.95,4.94-11.95,8.88c0,4.09,3.94,7.08,11.84,8.99c7.89,1.9,18.26,2.85,31.08,2.85S499.32,192.97,507.22,191.07z
				 M520.75,94.32V79.94h-19.88l-2.12-30.45h21.99v-9.73h35.11v99.39h-35.11v-14.38h-21.99l2.12-30.45H520.75z"/>
		</g>
	</g>
</g>
</svg>
