<?xml version="1.0" encoding="utf-8"?>
<!-- Generator: Adobe Illustrator 23.0.0, SVG Export Plug-In . SVG Version: 6.00 Build 0)  -->
<svg version="1.1" id="레이어_1" xmlns="http://www.w3.org/2000/svg" xmlns:xlink="http://www.w3.org/1999/xlink" x="0px"
	 y="0px" viewBox="0 0 250 150" style="enable-background:new 0 0 250 150;" xml:space="preserve">
<style type="text/css">
	.st0{fill:#FFFFFF;}
</style>
<polygon style="fill:none;" points="358.96,68.4 361.26,68.4 361.26,68.4 358.96,68.4 "/>
<g>
	<path class="st0" d="M23.88,25.13v14.78c0,8.36-1.89,15.26-5.62,20.5c-3.62,5.07-9.76,8.59-18.26,10.44L0,79.87
		c8.5,1.86,14.64,5.38,18.26,10.43c3.73,5.25,5.62,12.16,5.62,20.52v14.78c0,8.63,2.7,15,8.01,18.93c4.95,3.67,11.72,5.46,20.7,5.46
		v-9.24c-6.82,0-11.94-1.22-15.2-3.65c-2.87-2.13-4.27-5.89-4.27-11.51v-14.78c0-10.32-2.47-19.02-7.34-25.87
		c-2.79-3.9-6.52-7.1-11.15-9.59c4.63-2.48,8.36-5.69,11.15-9.6c4.86-6.84,7.33-15.54,7.33-25.86V25.13c0-5.62,1.4-9.39,4.27-11.52
		c3.26-2.41,8.37-3.64,15.2-3.64V0.73c-8.85,0-15.81,1.83-20.7,5.45C26.57,10.13,23.88,16.5,23.88,25.13z"/>
	<path class="st0" d="M249.99,70.85c-8.5-1.86-14.64-5.37-18.26-10.44c-3.73-5.24-5.62-12.14-5.62-20.5V25.13
		c0-8.63-2.69-15-8.01-18.95c-2.6-1.92-5.71-3.31-9.36-4.21c-8.05-2.32-18.64-2.68-32.01-0.58c0,0-40.96-4.19-38.97,36.52
		c0.6,0.12,1.2,0.22,1.79,0.34c-0.11,1.25-0.18,2.52-0.18,3.83c0,11.41-3.9,15.02-6.75,17.66c-1.86,1.72-4.18,3.87-4.18,7.37
		c0,5.05,7.23,49.51,33.22,49.51c3.91,0,5.61,1.6,6.55,2.8c5.04,6.48,2.46,22.61,1.16,27.74l8.95,2.28
		c0.63-2.47,5.91-24.46-2.81-35.68c-3.24-4.17-8.03-6.38-13.85-6.38c-16.18,0-23.53-32.74-23.96-39.71c0.3-0.32,0.8-0.79,1.2-1.15
		c3.63-3.36,9.7-8.99,9.7-24.43c0-0.79,0.06-1.55,0.11-2.31c13.08,1.91,23.56,2.42,23.56,2.42l0.6-16.09l6.85,30.45
		c0,0,7.45-11.38,16.39-3.93s-2.18,28.77-10.82,26.38c8.04,23.62,12.1,66.39,12.1,66.39h0V150c8.98,0,15.74-1.79,20.69-5.46
		c5.32-3.93,8.01-10.3,8.01-18.94v-14.78c0-8.36,1.89-15.26,5.61-20.5c3.62-5.07,9.77-8.58,18.27-10.45L249.99,70.85z"/>
	<path class="st0" d="M155.42,53.68c0,3.28,1.65,5.93,3.67,5.93c2.03,0,3.67-2.66,3.67-5.93c0-3.28-1.65-5.93-3.67-5.93
		C157.06,47.74,155.42,50.4,155.42,53.68z"/>
	
		<rect x="-1.11" y="72.21" transform="matrix(0.159 -0.9873 0.9873 0.159 -15.8943 134.9927)" class="st0" width="144.79" height="9.24"/>
</g>
</svg>
